<svg width="105" height="35" viewBox="0 0 105 35" fill="none" xmlns="http://www.w3.org/2000/svg">
<g filter="url(#filter0_i_559_40021)">
<rect x="4" width="101" height="35" rx="5" fill="#165F23"/>
</g>
<path d="M38.1098 16.216C38.1098 16.664 38.0018 17.084 37.7858 17.476C37.5778 17.868 37.2458 18.184 36.7898 18.424C36.3418 18.664 35.7738 18.784 35.0858 18.784H33.6818V22H32.0018V13.624H35.0858C35.7338 13.624 36.2858 13.736 36.7418 13.96C37.1978 14.184 37.5378 14.492 37.7618 14.884C37.9938 15.276 38.1098 15.72 38.1098 16.216ZM35.0138 17.428C35.4778 17.428 35.8218 17.324 36.0458 17.116C36.2698 16.9 36.3818 16.6 36.3818 16.216C36.3818 15.4 35.9258 14.992 35.0138 14.992H33.6818V17.428H35.0138ZM40.9826 16.384C41.1986 16.032 41.4786 15.756 41.8226 15.556C42.1746 15.356 42.5746 15.256 43.0226 15.256V17.02H42.5786C42.0506 17.02 41.6506 17.144 41.3786 17.392C41.1146 17.64 40.9826 18.072 40.9826 18.688V22H39.3026V15.352H40.9826V16.384ZM50.3342 18.532C50.3342 18.772 50.3182 18.988 50.2862 19.18H45.4262C45.4662 19.66 45.6342 20.036 45.9302 20.308C46.2262 20.58 46.5902 20.716 47.0222 20.716C47.6462 20.716 48.0902 20.448 48.3542 19.912H50.1662C49.9742 20.552 49.6062 21.08 49.0622 21.496C48.5182 21.904 47.8502 22.108 47.0582 22.108C46.4182 22.108 45.8422 21.968 45.3302 21.688C44.8262 21.4 44.4302 20.996 44.1422 20.476C43.8622 19.956 43.7222 19.356 43.7222 18.676C43.7222 17.988 43.8622 17.384 44.1422 16.864C44.4222 16.344 44.8142 15.944 45.3182 15.664C45.8222 15.384 46.4022 15.244 47.0582 15.244C47.6902 15.244 48.2542 15.38 48.7502 15.652C49.2542 15.924 49.6422 16.312 49.9142 16.816C50.1942 17.312 50.3342 17.884 50.3342 18.532ZM48.5942 18.052C48.5862 17.62 48.4302 17.276 48.1262 17.02C47.8222 16.756 47.4502 16.624 47.0102 16.624C46.5942 16.624 46.2422 16.752 45.9542 17.008C45.6742 17.256 45.5022 17.604 45.4382 18.052H48.5942ZM54.1044 22.108C53.5604 22.108 53.0724 22.012 52.6404 21.82C52.2084 21.62 51.8644 21.352 51.6084 21.016C51.3604 20.68 51.2244 20.308 51.2004 19.9H52.8924C52.9244 20.156 53.0484 20.368 53.2644 20.536C53.4884 20.704 53.7644 20.788 54.0924 20.788C54.4124 20.788 54.6604 20.724 54.8364 20.596C55.0204 20.468 55.1124 20.304 55.1124 20.104C55.1124 19.888 55.0004 19.728 54.7764 19.624C54.5604 19.512 54.2124 19.392 53.7324 19.264C53.2364 19.144 52.8284 19.02 52.5084 18.892C52.1964 18.764 51.9244 18.568 51.6924 18.304C51.4684 18.04 51.3564 17.684 51.3564 17.236C51.3564 16.868 51.4604 16.532 51.6684 16.228C51.8844 15.924 52.1884 15.684 52.5804 15.508C52.9804 15.332 53.4484 15.244 53.9844 15.244C54.7764 15.244 55.4084 15.444 55.8804 15.844C56.3524 16.236 56.6124 16.768 56.6604 17.44H55.0524C55.0284 17.176 54.9164 16.968 54.7164 16.816C54.5244 16.656 54.2644 16.576 53.9364 16.576C53.6324 16.576 53.3964 16.632 53.2284 16.744C53.0684 16.856 52.9884 17.012 52.9884 17.212C52.9884 17.436 53.1004 17.608 53.3244 17.728C53.5484 17.84 53.8964 17.956 54.3684 18.076C54.8484 18.196 55.2444 18.32 55.5564 18.448C55.8684 18.576 56.1364 18.776 56.3604 19.048C56.5924 19.312 56.7124 19.664 56.7204 20.104C56.7204 20.488 56.6124 20.832 56.3964 21.136C56.1884 21.44 55.8844 21.68 55.4844 21.856C55.0924 22.024 54.6324 22.108 54.1044 22.108ZM60.0555 16.732V19.948C60.0555 20.172 60.1075 20.336 60.2115 20.44C60.3235 20.536 60.5075 20.584 60.7635 20.584H61.5435V22H60.4875C59.0715 22 58.3635 21.312 58.3635 19.936V16.732H57.5715V15.352H58.3635V13.708H60.0555V15.352H61.5435V16.732H60.0555ZM62.3198 18.652C62.3198 17.98 62.4518 17.384 62.7158 16.864C62.9878 16.344 63.3518 15.944 63.8078 15.664C64.2718 15.384 64.7878 15.244 65.3558 15.244C65.8518 15.244 66.2838 15.344 66.6518 15.544C67.0278 15.744 67.3278 15.996 67.5518 16.3V15.352H69.2438V22H67.5518V21.028C67.3358 21.34 67.0358 21.6 66.6518 21.808C66.2758 22.008 65.8398 22.108 65.3438 22.108C64.7838 22.108 64.2718 21.964 63.8078 21.676C63.3518 21.388 62.9878 20.984 62.7158 20.464C62.4518 19.936 62.3198 19.332 62.3198 18.652ZM67.5518 18.676C67.5518 18.268 67.4718 17.92 67.3118 17.632C67.1518 17.336 66.9358 17.112 66.6638 16.96C66.3918 16.8 66.0998 16.72 65.7878 16.72C65.4758 16.72 65.1878 16.796 64.9238 16.948C64.6598 17.1 64.4438 17.324 64.2758 17.62C64.1158 17.908 64.0358 18.252 64.0358 18.652C64.0358 19.052 64.1158 19.404 64.2758 19.708C64.4438 20.004 64.6598 20.232 64.9238 20.392C65.1958 20.552 65.4838 20.632 65.7878 20.632C66.0998 20.632 66.3918 20.556 66.6638 20.404C66.9358 20.244 67.1518 20.02 67.3118 19.732C67.4718 19.436 67.5518 19.084 67.5518 18.676ZM73.4286 22.108C72.8846 22.108 72.3966 22.012 71.9646 21.82C71.5326 21.62 71.1886 21.352 70.9326 21.016C70.6846 20.68 70.5486 20.308 70.5246 19.9H72.2166C72.2486 20.156 72.3726 20.368 72.5886 20.536C72.8126 20.704 73.0886 20.788 73.4166 20.788C73.7366 20.788 73.9846 20.724 74.1606 20.596C74.3446 20.468 74.4366 20.304 74.4366 20.104C74.4366 19.888 74.3246 19.728 74.1006 19.624C73.8846 19.512 73.5366 19.392 73.0566 19.264C72.5606 19.144 72.1526 19.02 71.8326 18.892C71.5206 18.764 71.2486 18.568 71.0166 18.304C70.7926 18.04 70.6806 17.684 70.6806 17.236C70.6806 16.868 70.7846 16.532 70.9926 16.228C71.2086 15.924 71.5126 15.684 71.9046 15.508C72.3046 15.332 72.7726 15.244 73.3086 15.244C74.1006 15.244 74.7326 15.444 75.2046 15.844C75.6766 16.236 75.9366 16.768 75.9846 17.44H74.3766C74.3526 17.176 74.2406 16.968 74.0406 16.816C73.8486 16.656 73.5886 16.576 73.2606 16.576C72.9566 16.576 72.7206 16.632 72.5526 16.744C72.3926 16.856 72.3126 17.012 72.3126 17.212C72.3126 17.436 72.4246 17.608 72.6486 17.728C72.8726 17.84 73.2206 17.956 73.6926 18.076C74.1726 18.196 74.5686 18.32 74.8806 18.448C75.1926 18.576 75.4606 18.776 75.6846 19.048C75.9166 19.312 76.0366 19.664 76.0446 20.104C76.0446 20.488 75.9366 20.832 75.7206 21.136C75.5126 21.44 75.2086 21.68 74.8086 21.856C74.4166 22.024 73.9566 22.108 73.4286 22.108ZM78.2757 14.56C77.9797 14.56 77.7317 14.468 77.5317 14.284C77.3397 14.092 77.2437 13.856 77.2437 13.576C77.2437 13.296 77.3397 13.064 77.5317 12.88C77.7317 12.688 77.9797 12.592 78.2757 12.592C78.5717 12.592 78.8157 12.688 79.0077 12.88C79.2077 13.064 79.3077 13.296 79.3077 13.576C79.3077 13.856 79.2077 14.092 79.0077 14.284C78.8157 14.468 78.5717 14.56 78.2757 14.56ZM79.1037 15.352V22H77.4237V15.352H79.1037ZM85.4915 22L82.4435 18.268V22H80.7635V13.624H82.4435V17.38L85.4915 13.624H87.5195L84.0635 17.776L87.6155 22H85.4915ZM94.9966 15.352V22H93.3046V21.16C93.0886 21.448 92.8046 21.676 92.4526 21.844C92.1086 22.004 91.7326 22.084 91.3246 22.084C90.8046 22.084 90.3446 21.976 89.9446 21.76C89.5446 21.536 89.2286 21.212 88.9966 20.788C88.7726 20.356 88.6606 19.844 88.6606 19.252V15.352H90.3406V19.012C90.3406 19.54 90.4726 19.948 90.7366 20.236C91.0006 20.516 91.3606 20.656 91.8166 20.656C92.2806 20.656 92.6446 20.516 92.9086 20.236C93.1726 19.948 93.3046 19.54 93.3046 19.012V15.352H94.9966Z" fill="white"/>
<path d="M27.2426 27.4724C22.024 27.4724 16.8482 27.4724 11.6214 27.4724C11.6124 27.2997 11.5976 27.1478 11.5975 26.996C11.595 22.3262 11.5917 17.6564 11.5932 12.9866C11.5942 9.72531 14.2886 6.60585 17.7952 5.79724C23.2946 4.5291 28.3127 8.16405 28.3287 13.4434C28.3423 17.9407 28.3318 22.4381 28.3313 26.9354C28.3313 27.4715 28.3294 27.4715 27.7626 27.4724C27.6035 27.4726 27.4445 27.4724 27.2426 27.4724ZM20.4672 15.2855C20.3686 15.2356 20.1855 15.1876 20.1841 15.1357C20.1653 14.4124 20.1714 13.6885 20.1714 12.9369C21.2046 12.9369 22.1715 12.9369 23.1383 12.9369C24.1155 12.9369 25.0926 12.9369 26.0961 12.9369C26.0961 12.8125 26.0998 12.7488 26.0956 12.6855C25.9005 9.77114 23.0767 7.41845 19.8614 7.49077C16.5099 7.56615 13.8037 10.0285 13.7991 13.0216C13.793 16.9744 13.7981 20.9271 13.7998 24.8798C13.7999 25.0189 13.8146 25.1579 13.8219 25.2866C17.9495 25.2866 22.0203 25.2866 26.0957 25.2866C26.0957 25.0015 26.0957 24.7445 26.0957 24.4461C22.2402 24.4461 18.4164 24.4461 14.5815 24.4461C14.5815 23.6447 14.5815 22.8859 14.5815 22.0796C18.4384 22.0796 22.2614 22.0796 26.093 22.0796C26.093 21.8156 26.093 21.6004 26.093 21.3517C22.7528 21.3517 19.447 21.3517 16.1193 21.3517C16.1193 20.5571 16.1193 19.7969 16.1193 18.9818C19.466 18.9818 22.7807 18.9818 26.1043 18.9818C26.1043 18.7457 26.1043 18.565 26.1043 18.3308C23.3737 18.3308 20.6656 18.3308 17.9461 18.3308C17.9461 17.5128 17.9461 16.7485 17.9461 15.9328C20.6757 15.9328 23.3842 15.9328 26.0895 15.9328C26.0895 15.6914 26.0895 15.5026 26.0895 15.2855C24.2172 15.2855 22.3828 15.2855 20.4672 15.2855Z" fill="#B7F3BA"/>
<path d="M20.5078 15.2855C22.3828 15.2855 24.2172 15.2855 26.0895 15.2855C26.0895 15.5026 26.0895 15.6914 26.0895 15.9328C23.3842 15.9328 20.6757 15.9328 17.9461 15.9328C17.9461 16.7485 17.9461 17.5128 17.9461 18.3308C20.6656 18.3308 23.3737 18.3308 26.1043 18.3308C26.1043 18.565 26.1043 18.7457 26.1043 18.9818C22.7807 18.9818 19.466 18.9818 16.1193 18.9818C16.1193 19.7969 16.1193 20.5571 16.1193 21.3517C19.447 21.3517 22.7528 21.3517 26.093 21.3517C26.093 21.6004 26.093 21.8156 26.093 22.0796C22.2615 22.0796 18.4384 22.0796 14.5815 22.0796C14.5815 22.8858 14.5815 23.6447 14.5815 24.4461C18.4164 24.4461 22.2402 24.4461 26.0957 24.4461C26.0957 24.7444 26.0957 25.0014 26.0957 25.2866C22.0203 25.2866 17.9495 25.2866 13.8219 25.2866C13.8146 25.1579 13.7999 25.0188 13.7998 24.8798C13.7981 20.9271 13.793 16.9744 13.7991 13.0216C13.8037 10.0285 16.5099 7.56614 19.8614 7.49076C23.0767 7.41844 25.9005 9.77112 26.0956 12.6855C26.0998 12.7488 26.0961 12.8125 26.0961 12.9368C25.0926 12.9368 24.1155 12.9368 23.1383 12.9368C22.1715 12.9368 21.2046 12.9368 20.1714 12.9368C20.1714 13.6885 20.1653 14.4124 20.1841 15.1357C20.1855 15.1876 20.3686 15.2356 20.5078 15.2855ZM16.7672 14.3049C16.8692 14.6585 16.9711 15.0121 17.073 15.3656C17.2312 14.1107 17.786 13.2051 19.2058 12.8836C18.067 12.7654 17.409 11.9978 17.2598 11.2508C17.2304 11.1037 17.1585 10.9637 17.1035 10.8131C16.8441 11.3058 16.695 11.8032 16.3637 12.157C16.0419 12.5007 15.5332 12.6971 15.0792 12.975C15.8578 13.1674 16.4591 13.5374 16.7672 14.3049ZM20.3943 9.51615C20.1581 9.86659 19.9219 10.217 19.7055 10.5381C19.9329 10.8054 20.2007 11.1204 20.3894 11.3422C20.6809 11.05 20.999 10.7312 21.2958 10.4337C20.7646 10.3796 20.5694 9.96133 20.3943 9.51615ZM15.4013 16.9377C15.556 16.7317 15.7107 16.5256 15.8541 16.3346C15.6877 16.1625 15.4812 15.9489 15.3091 15.7709C15.1217 15.9645 14.9118 16.1814 14.7648 16.3332C14.9261 16.5555 15.0917 16.7864 15.2643 17.0128C15.2725 17.0236 15.3432 16.9944 15.4013 16.9377Z" fill="#165F23"/>
<path d="M16.7551 14.2757C16.4591 13.5374 15.8578 13.1674 15.0792 12.975C15.5332 12.6971 16.0419 12.5007 16.3637 12.157C16.695 11.8032 16.8441 11.3058 17.1035 10.8131C17.1585 10.9637 17.2304 11.1037 17.2598 11.2509C17.409 11.9978 18.067 12.7655 19.2058 12.8837C17.786 13.2051 17.2312 14.1108 17.073 15.3657C16.9711 15.0121 16.8692 14.6585 16.7551 14.2757Z" fill="#F4F5F4"/>
<path d="M20.4162 9.50366C20.5694 9.96129 20.7646 10.3795 21.2958 10.4337C20.999 10.7311 20.6809 11.05 20.3894 11.3421C20.2007 11.1203 19.9328 10.8054 19.7055 10.5381C19.9219 10.217 20.1581 9.86655 20.4162 9.50366Z" fill="#E8EAE8"/>
<path d="M15.3931 16.9608C15.3432 16.9944 15.2725 17.0236 15.2643 17.0127C15.0916 16.7864 14.9261 16.5555 14.7648 16.3332C14.9118 16.1813 15.1217 15.9645 15.3091 15.7709C15.4812 15.9489 15.6877 16.1624 15.8541 16.3345C15.7107 16.5256 15.556 16.7316 15.3931 16.9608Z" fill="#DADDDA"/>
<defs>
<filter id="filter0_i_559_40021" x="4" y="0" width="101" height="39" filterUnits="userSpaceOnUse" color-interpolation-filters="sRGB">
<feFlood flood-opacity="0" result="BackgroundImageFix"/>
<feBlend mode="normal" in="SourceGraphic" in2="BackgroundImageFix" result="shape"/>
<feColorMatrix in="SourceAlpha" type="matrix" values="0 0 0 0 0 0 0 0 0 0 0 0 0 0 0 0 0 0 127 0" result="hardAlpha"/>
<feOffset dy="4"/>
<feGaussianBlur stdDeviation="2.5"/>
<feComposite in2="hardAlpha" operator="arithmetic" k2="-1" k3="1"/>
<feColorMatrix type="matrix" values="0 0 0 0 0 0 0 0 0 0 0 0 0 0 0 0 0 0 0.25 0"/>
<feBlend mode="normal" in2="shape" result="effect1_innerShadow_559_40021"/>
</filter>
</defs>
</svg>
