<svg width="22" height="17" viewBox="0 0 22 17" fill="none" xmlns="http://www.w3.org/2000/svg">
<path d="M21.6102 9.36036L13.6915 16.6438C13.4436 16.8719 13.1073 17 12.7567 17C12.4061 17 12.0698 16.8719 11.8219 16.6438C11.5739 16.4158 11.4346 16.1065 11.4346 15.784C11.4346 15.4615 11.5739 15.1522 11.8219 14.9241L17.487 9.71543H1.31977C0.969747 9.71543 0.634058 9.58754 0.386552 9.35988C0.139047 9.13223 0 8.82347 0 8.50152C0 8.17957 0.139047 7.8708 0.386552 7.64315C0.634058 7.4155 0.969747 7.2876 1.31977 7.2876H17.487L11.8241 2.07587C11.5761 1.84783 11.4368 1.53853 11.4368 1.21602C11.4368 0.89351 11.5761 0.584211 11.8241 0.356163C12.072 0.128116 12.4083 3.39817e-09 12.7589 0C13.1095 -3.39818e-09 13.4458 0.128116 13.6937 0.356163L21.6124 7.63964C21.7354 7.75257 21.833 7.88674 21.8995 8.03446C21.9661 8.18218 22.0002 8.34053 22 8.50042C21.9998 8.66031 21.9653 8.81859 21.8984 8.96616C21.8315 9.11373 21.7335 9.2477 21.6102 9.36036Z" fill="#165F23"/>
</svg>
